# xmcd
#
# Track frame offsets:
#	150
#	30382
#	54910
#	88160
#	115997
#	145360
#	170325
#	186817
#	228125
#	263662
#	288562
#	316150
#
# Disc length: 4477 seconds
#
# Revision: 1
# Processed by: cddbd v1.5.2PL0 Copyright (c) Steve Scherf et al.
# Submitted via: audiograbber 1.83.01
#
DISCID=9d117b0c
DTITLE=Various Artists Salsa - Los Grandes De La Salsa Y Son Montuno
DYEAR=1996
DGENRE=Salsa
TTITLE0=Jorge Maldonado - Vacilon
TTITLE1=Roberto Torres - Linda Guajira
TTITLE2=La India de Oriente - Guantanamera
TTITLE3=Chocolate - Prefiero el Son
TTITLE4=La India de Oriente - el fiel enamorado
TTITLE5=Conjunto Crema - Canallon
TTITLE6=Roberto Torres - Mata Siguaraya
TTITLE7=Henry Fiol - Ven y Baila mi Son
TTITLE8=Labasosseh - Botton Belme
TTITLE9=Chocolate - En la Campina
TTITLE10=Conjunto Crema - Mireya
TTITLE11=Papaito - Caramelo a Kilo
EXTD=
EXTT0=
EXTT1=
EXTT2=
EXTT3=
EXTT4=
EXTT5=
EXTT6=
EXTT7=
EXTT8=
EXTT9=
EXTT10=
EXTT11=
PLAYORDER=
